<?xml version="1.0" standalone="no"?>
<!DOCTYPE svg PUBLIC "-//W3C//DTD SVG 20010904//EN"
 "http://www.w3.org/TR/2001/REC-SVG-20010904/DTD/svg10.dtd">
<svg version="1.0" xmlns="http://www.w3.org/2000/svg"
 width="1024.000000pt" height="1024.000000pt" viewBox="0 0 1024.000000 1024.000000"
 preserveAspectRatio="xMidYMid meet">

<g transform="translate(0.000000,1024.000000) scale(0.100000,-0.100000)"
fill="#000000" stroke="none">
<path d="M0 5120 l0 -5120 5120 0 5120 0 0 5120 0 5120 -5120 0 -5120 0 0
-5120z m5651 3389 c134 -26 235 -61 374 -129 157 -76 276 -161 405 -290 168
-167 276 -343 351 -572 62 -190 89 -337 96 -533 15 -427 -70 -848 -256 -1266
l-47 -105 96 48 c110 55 270 109 397 135 131 26 388 24 504 -5 337 -83 561
-280 665 -586 31 -90 54 -213 54 -288 0 -53 4 -65 30 -95 17 -19 33 -48 37
-64 3 -16 9 -29 14 -29 5 0 9 -16 9 -35 0 -19 -4 -35 -9 -35 -5 0 -11 -13 -14
-29 -13 -64 -126 -151 -197 -151 -39 0 -117 39 -152 77 -33 35 -58 95 -58 138
0 76 58 159 133 190 47 19 52 33 39 99 -51 254 -304 415 -567 361 -109 -22
-201 -67 -365 -180 -77 -53 -165 -107 -196 -121 l-56 -25 99 -102 c209 -218
367 -495 477 -836 33 -102 55 -204 101 -466 48 -275 245 -442 495 -422 185 15
348 148 395 321 27 100 18 222 -23 309 -42 90 -132 184 -222 231 -81 43 -99
44 -131 10 -32 -35 -111 -74 -149 -74 -39 0 -117 39 -152 77 -33 35 -58 95
-58 138 0 45 31 114 66 146 37 34 110 69 144 69 62 0 176 -81 194 -138 4 -13
28 -27 69 -42 184 -66 344 -222 411 -401 119 -320 -21 -693 -330 -875 -159
-93 -265 -119 -466 -112 -119 4 -157 10 -225 32 -159 52 -267 113 -391 221
-193 170 -277 319 -437 780 -150 434 -253 581 -479 690 -71 34 -244 88 -322
100 l-42 6 -7 -108 c-13 -190 11 -427 65 -639 67 -259 179 -473 390 -745 54
-69 121 -161 149 -204 235 -359 249 -753 37 -1048 -268 -375 -783 -422 -1088
-99 -88 94 -147 204 -172 324 -4 19 -18 34 -44 47 -71 37 -122 115 -122 186 0
45 31 114 66 146 37 34 110 69 144 69 69 0 184 -88 197 -151 3 -16 9 -29 14
-29 5 0 9 -16 9 -35 0 -19 -4 -35 -9 -35 -5 0 -11 -13 -14 -30 -4 -16 -24 -49
-46 -73 -38 -42 -39 -44 -30 -86 16 -73 69 -162 133 -227 101 -101 204 -140
347 -132 67 4 91 11 163 46 253 125 335 419 185 654 -42 64 -110 123 -167 144
-134 48 -224 99 -315 179 -190 167 -405 499 -492 759 -62 185 -105 454 -105
660 -1 262 -64 371 -179 311 -59 -30 -75 -99 -91 -390 -19 -349 -67 -550 -189
-794 -68 -134 -192 -310 -287 -405 -91 -90 -248 -215 -332 -263 -187 -106
-203 -117 -247 -175 -89 -118 -118 -271 -75 -397 43 -129 130 -229 248 -284
56 -26 82 -32 158 -35 225 -10 412 115 475 319 l19 62 -41 35 c-124 107 -95
277 60 351 58 27 86 26 147 -3 58 -28 112 -85 121 -127 3 -16 9 -29 14 -29 5
0 9 -16 9 -35 0 -19 -4 -35 -9 -35 -5 0 -11 -13 -14 -29 -7 -34 -59 -96 -97
-116 -21 -11 -29 -26 -39 -70 -28 -123 -117 -262 -233 -361 -107 -92 -301
-164 -443 -164 -177 0 -368 83 -504 219 -148 149 -221 336 -221 570 0 132 17
228 63 349 44 119 105 219 246 406 268 353 370 560 435 876 14 69 30 169 35
222 13 111 15 415 3 421 -8 6 -200 -42 -277 -68 -207 -71 -372 -224 -466 -431
-16 -38 -66 -177 -111 -309 -125 -375 -219 -552 -376 -710 -231 -233 -535
-351 -819 -317 -275 32 -497 189 -619 437 -60 123 -78 198 -78 320 1 271 144
492 396 613 63 30 79 43 88 68 20 58 127 134 190 134 69 0 184 -88 197 -151 3
-16 9 -29 14 -29 5 0 9 -16 9 -35 0 -19 -4 -35 -9 -35 -5 0 -11 -13 -14 -29
-13 -64 -126 -151 -197 -151 -37 0 -104 32 -142 68 l-27 25 -67 -33 c-182 -89
-299 -300 -267 -483 28 -166 146 -301 314 -357 53 -19 80 -21 159 -18 81 4
105 10 162 36 117 57 206 155 249 277 11 31 29 118 40 193 40 267 107 471 238
730 88 172 165 291 268 414 81 96 81 96 55 103 -52 13 -168 78 -272 152 -159
113 -227 145 -359 163 -94 13 -181 -1 -277 -45 -112 -51 -191 -136 -237 -253
l-17 -42 50 -48 c31 -30 52 -60 56 -80 4 -18 10 -32 15 -32 5 0 9 -16 9 -35 0
-19 -4 -35 -9 -35 -5 0 -11 -13 -14 -29 -13 -64 -126 -151 -197 -151 -39 0
-117 39 -152 77 -33 35 -58 95 -58 138 0 68 53 148 124 190 11 6 22 35 31 80
37 187 133 366 263 486 110 102 222 164 389 216 84 26 98 27 303 27 203 1 221
-1 315 -26 196 -53 369 -130 521 -233 53 -36 94 -62 92 -58 -2 5 -33 69 -70
143 -100 205 -161 386 -200 600 -29 155 -30 431 -4 570 70 364 259 702 522
932 100 88 261 196 377 255 268 134 621 201 927 174 104 -9 119 -8 157 9 59
26 83 69 83 147 0 50 -6 73 -34 126 -18 36 -50 86 -70 112 -20 26 -36 52 -36
58 0 12 105 2 231 -24z"/>
<path d="M4072 6619 c-71 -28 -163 -114 -193 -181 -20 -44 -24 -69 -24 -149 0
-90 2 -100 35 -165 60 -116 167 -178 310 -178 60 0 86 5 132 26 107 49 185
155 208 281 26 140 -65 291 -216 359 -71 31 -183 35 -252 7z m88 -105 c14 -10
31 -24 38 -32 37 -47 -12 -129 -85 -139 -37 -5 -45 -2 -73 25 -16 17 -30 38
-30 47 0 33 32 84 63 99 41 20 57 20 87 0z"/>
<path d="M5955 6626 c-83 -26 -174 -103 -214 -181 -87 -169 -8 -388 167 -467
70 -32 238 -32 303 0 118 58 188 164 197 296 6 90 -12 150 -66 220 -90 119
-253 174 -387 132z m84 -111 c16 -8 36 -30 45 -49 15 -31 15 -39 2 -70 -17
-40 -42 -56 -89 -56 -97 0 -132 130 -47 175 33 18 55 18 89 0z"/>
<path d="M4736 5803 c-3 -21 -6 -65 -6 -99 0 -193 203 -340 443 -321 168 13
291 105 331 248 19 64 20 119 5 172 l-10 38 -28 -21 c-57 -40 -174 -89 -242
-101 -127 -23 -308 16 -431 91 -27 17 -50 30 -52 30 -2 0 -6 -17 -10 -37z"/>
<path d="M1900 4837 c-50 -18 -83 -70 -77 -125 16 -143 219 -143 234 0 9 91
-71 155 -157 125z"/>
<path d="M8120 4807 c-50 -18 -83 -70 -77 -125 16 -143 219 -143 234 0 9 91
-71 155 -157 125z"/>
<path d="M2170 4317 c-50 -18 -83 -70 -77 -125 16 -143 219 -143 234 0 9 91
-71 155 -157 125z"/>
<path d="M7940 4317 c-50 -18 -83 -70 -77 -125 16 -143 219 -143 234 0 9 91
-71 155 -157 125z"/>
<path d="M4800 2507 c-50 -18 -83 -70 -77 -125 16 -143 219 -143 234 0 9 91
-71 155 -157 125z"/>
<path d="M5340 2507 c-50 -18 -83 -70 -77 -125 16 -143 219 -143 234 0 9 91
-71 155 -157 125z"/>
</g>
</svg>
