<svg width="532" height="396" fill="none" xmlns="http://www.w3.org/2000/svg"><path d="M475.17 277.464l13.211 25.32H461.96l13.21-25.32z" fill="url(#paint0_linear)"/><path d="M475.17 328.104l13.211-25.32H461.96l13.21 25.32z" fill="url(#paint1_linear)"/><path d="M475.17 277.464l6.581 25.32H468.59l6.58-25.32z" fill="url(#paint2_linear)"/><path d="M475.17 328.104l6.581-25.32H468.59l6.58 25.32z" fill="url(#paint3_linear)"/><path d="M376.092 5l13.211 25.32h-26.421L376.092 5z" fill="url(#paint4_linear)"/><path d="M376.092 55.64l13.211-25.32h-26.421l13.21 25.32z" fill="url(#paint5_linear)"/><path d="M376.093 5l6.58 25.32h-13.161L376.093 5z" fill="url(#paint6_linear)"/><path d="M376.093 55.64l6.58-25.32h-13.161l6.581 25.32z" fill="url(#paint7_linear)"/><path d="M155.92 5l13.21 25.32h-26.421L155.92 5z" fill="url(#paint8_linear)"/><path d="M155.92 55.64l13.21-25.32h-26.421l13.211 25.32z" fill="url(#paint9_linear)"/><path d="M155.92 5l6.58 25.32h-13.161L155.92 5z" fill="url(#paint10_linear)"/><path d="M155.92 55.64l6.58-25.32h-13.161l6.581 25.32z" fill="url(#paint11_linear)"/><path d="M266.556 340.215l13.211 25.32h-26.421l13.21-25.32z" fill="url(#paint12_radial)"/><path d="M266.556 390.855l13.211-25.32h-26.421l13.21 25.32z" fill="url(#paint13_radial)"/><path d="M266.556 340.215l6.581 25.32h-13.161l6.58-25.32z" fill="url(#paint14_linear)"/><path d="M266.556 390.855l6.581-25.32h-13.161l6.58 25.32z" fill="url(#paint15_linear)"/><path d="M56.842 277.464l13.21 25.32h-26.42l13.21-25.32z" fill="url(#paint16_linear)"/><path d="M56.842 328.104l13.21-25.32h-26.42l13.21 25.32z" fill="url(#paint17_linear)"/><path d="M56.842 277.464l6.58 25.32H50.261l6.58-25.32z" fill="url(#paint18_linear)"/><path d="M56.842 328.104l6.58-25.32H50.261l6.58 25.32z" fill="url(#paint19_linear)"/><path d="M514.801 110.133l13.21 25.32H501.59l13.211-25.32z" fill="url(#paint20_linear)"/><path d="M514.801 160.773l13.21-25.32H501.59l13.211 25.32z" fill="url(#paint21_linear)"/><path d="M514.801 110.133l6.581 25.32H508.22l6.581-25.32z" fill="url(#paint22_linear)"/><path d="M514.801 160.773l6.581-25.32H508.22l6.581 25.32z" fill="url(#paint23_linear)"/><path d="M17.21 110.132l13.21 25.32H4l13.21-25.32z" fill="url(#paint24_linear)"/><path d="M17.21 160.772l13.21-25.32H4l13.21 25.32z" fill="url(#paint25_linear)"/><path d="M17.21 110.132l6.581 25.32H10.63l6.58-25.32z" fill="url(#paint26_linear)"/><path d="M17.21 160.772l6.581-25.32H10.63l6.58 25.32z" fill="url(#paint27_linear)"/><defs><linearGradient id="paint0_linear" x1="475.17" y1="277.464" x2="475.17" y2="302.784" gradientUnits="userSpaceOnUse"><stop stop-color="#5FCF5F"/><stop offset="1" stop-color="#42CD42"/></linearGradient><linearGradient id="paint1_linear" x1="475.17" y1="302.784" x2="475.17" y2="328.104" gradientUnits="userSpaceOnUse"><stop stop-color="#36B836"/><stop offset="1" stop-color="#177617"/></linearGradient><linearGradient id="paint2_linear" x1="475.17" y1="277.464" x2="475.17" y2="302.784" gradientUnits="userSpaceOnUse"><stop stop-color="#74D474"/><stop offset="1" stop-color="#68F668"/></linearGradient><linearGradient id="paint3_linear" x1="475.17" y1="302.784" x2="475.17" y2="328.104" gradientUnits="userSpaceOnUse"><stop stop-color="#40CC40"/><stop offset="1" stop-color="#179417"/></linearGradient><linearGradient id="paint4_linear" x1="376.092" y1="5" x2="376.092" y2="30.32" gradientUnits="userSpaceOnUse"><stop stop-color="#83A3F1"/><stop offset="1" stop-color="#6D95F8"/></linearGradient><linearGradient id="paint5_linear" x1="376.092" y1="30.32" x2="376.092" y2="55.64" gradientUnits="userSpaceOnUse"><stop stop-color="#5E83E0"/><stop offset="1" stop-color="#355094"/></linearGradient><linearGradient id="paint6_linear" x1="376.093" y1="5" x2="376.093" y2="30.32" gradientUnits="userSpaceOnUse"><stop stop-color="#92ADF0"/><stop offset="1" stop-color="#A1BDFF"/></linearGradient><linearGradient id="paint7_linear" x1="376.093" y1="30.32" x2="376.093" y2="55.64" gradientUnits="userSpaceOnUse"><stop stop-color="#6B94F7"/><stop offset="1" stop-color="#3D61B9"/></linearGradient><linearGradient id="paint8_linear" x1="155.92" y1="5" x2="155.92" y2="30.32" gradientUnits="userSpaceOnUse"><stop offset=".333" stop-color="#DA78E7"/><stop offset="1" stop-color="#8F82FF"/></linearGradient><linearGradient id="paint9_linear" x1="155.92" y1="30.32" x2="155.92" y2="55.64" gradientUnits="userSpaceOnUse"><stop stop-color="#7D70F3"/><stop offset="1" stop-color="#4F45A6"/></linearGradient><linearGradient id="paint10_linear" x1="155.92" y1="5" x2="155.92" y2="30.32" gradientUnits="userSpaceOnUse"><stop offset=".302" stop-color="#DD89E9"/><stop offset="1" stop-color="#B8B0FF"/></linearGradient><linearGradient id="paint11_linear" x1="155.92" y1="30.32" x2="155.92" y2="55.64" gradientUnits="userSpaceOnUse"><stop stop-color="#8E81FF"/><stop offset="1" stop-color="#5D50CD"/></linearGradient><linearGradient id="paint14_linear" x1="266.556" y1="340.215" x2="266.556" y2="365.535" gradientUnits="userSpaceOnUse"><stop offset=".302" stop-color="#7ABDD7"/><stop offset="1" stop-color="#B3B3FF"/></linearGradient><linearGradient id="paint15_linear" x1="266.556" y1="365.535" x2="266.556" y2="390.855" gradientUnits="userSpaceOnUse"><stop stop-color="#8686FF"/><stop offset=".688" stop-color="#B73A41"/></linearGradient><linearGradient id="paint16_linear" x1="56.842" y1="277.464" x2="56.842" y2="302.784" gradientUnits="userSpaceOnUse"><stop stop-color="#5FCD74"/><stop offset="1" stop-color="#83E296"/></linearGradient><linearGradient id="paint17_linear" x1="56.842" y1="302.784" x2="56.842" y2="328.104" gradientUnits="userSpaceOnUse"><stop stop-color="#33B54C"/><stop offset="1" stop-color="#147126"/></linearGradient><linearGradient id="paint18_linear" x1="56.842" y1="277.464" x2="56.842" y2="302.784" gradientUnits="userSpaceOnUse"><stop stop-color="#73CF85"/><stop offset="1" stop-color="#C4F8CE"/></linearGradient><linearGradient id="paint19_linear" x1="56.842" y1="302.784" x2="56.842" y2="328.104" gradientUnits="userSpaceOnUse"><stop stop-color="#3DC958"/><stop offset="1" stop-color="#15922E"/></linearGradient><linearGradient id="paint20_linear" x1="514.801" y1="110.133" x2="514.801" y2="135.453" gradientUnits="userSpaceOnUse"><stop stop-color="#A2A2A2"/><stop offset="1" stop-color="#BCBCBC"/></linearGradient><linearGradient id="paint21_linear" x1="514.801" y1="135.453" x2="514.801" y2="160.773" gradientUnits="userSpaceOnUse"><stop stop-color="#929292"/><stop offset="1" stop-color="#494949"/></linearGradient><linearGradient id="paint22_linear" x1="514.801" y1="110.133" x2="514.801" y2="135.453" gradientUnits="userSpaceOnUse"><stop stop-color="#ACACAC"/><stop offset="1" stop-color="#E4E4E4"/></linearGradient><linearGradient id="paint23_linear" x1="514.801" y1="135.453" x2="514.801" y2="160.773" gradientUnits="userSpaceOnUse"><stop stop-color="#A8A8A8"/><stop offset="1" stop-color="#626262"/></linearGradient><linearGradient id="paint24_linear" x1="17.21" y1="110.132" x2="17.21" y2="135.452" gradientUnits="userSpaceOnUse"><stop stop-color="#FF8072"/><stop offset="1" stop-color="#FFA096"/></linearGradient><linearGradient id="paint25_linear" x1="17.21" y1="135.452" x2="17.21" y2="160.772" gradientUnits="userSpaceOnUse"><stop stop-color="#FF6453"/><stop offset="1" stop-color="#D11E0B"/></linearGradient><linearGradient id="paint26_linear" x1="17.21" y1="110.132" x2="17.21" y2="135.452" gradientUnits="userSpaceOnUse"><stop stop-color="#FF9287"/><stop offset="1" stop-color="#FFD9D4"/></linearGradient><linearGradient id="paint27_linear" x1="17.21" y1="135.452" x2="17.21" y2="160.772" gradientUnits="userSpaceOnUse"><stop stop-color="#FF8376"/><stop offset="1" stop-color="#E83522"/></linearGradient><radialGradient id="paint12_radial" cx="0" cy="0" r="1" gradientUnits="userSpaceOnUse" gradientTransform="matrix(18 -19.49999 20.3478 18.7826 258.006 360.758)"><stop offset=".332" stop-color="#8787FF"/><stop offset=".554" stop-color="#40CA54"/><stop offset=".697" stop-color="#7ABDD6"/></radialGradient><radialGradient id="paint13_radial" cx="0" cy="0" r="1" gradientUnits="userSpaceOnUse" gradientTransform="rotate(175.515 130.592 188.273) scale(25.5783 26.6904)"><stop offset=".12" stop-color="#988618"/><stop offset=".676" stop-color="#D553A0"/><stop offset=".862" stop-color="#B5393F"/></radialGradient></defs></svg>